# xmcd
#
# Track frame offsets: 
#        225
#        23625
#        56775
#        73875
#        91050
#        105150
#        122325
#        147525
#        161925
#        178950
#        194025
#        210675
#        255975
#        267150
#        283950
#
# Disc length: 4106 seconds
#
# Revision: 0
# Processed by: cddbd v1.5.2PL0 Copyright (c) Steve Scherf et al.
# Submitted via: ExactAudioCopyFreeDBPlugin 1.0
#
DISCID=e610070f
DTITLE=Claude Bourbon - Anthology  Disc 1 - Songs
DYEAR=1900
DGENRE=Blues
TTITLE0=Sitting on a Cliff
TTITLE1=Summertime
TTITLE2=I Need Shelter
TTITLE3=Rhyme or Reason
TTITLE4=Ghosts
TTITLE5=Never Mind
TTITLE6=The Road Is Long
TTITLE7=A Long Way from Home
TTITLE8=I'm Drifting
TTITLE9=I Borrowed a Smile
TTITLE10=Droit Devant
TTITLE11=How To Stretch It
TTITLE12=Drifter's Life
TTITLE13=White Wine
TTITLE14=There's a Storm Coming
EXTD=
EXTT0=
EXTT1=
EXTT2=
EXTT3=
EXTT4=
EXTT5=
EXTT6=
EXTT7=
EXTT8=
EXTT9=
EXTT10=
EXTT11=
EXTT12=
EXTT13=
EXTT14=
PLAYORDER=
